<svg width="174" height="44" viewBox="0 0 174 44" fill="none" xmlns="http://www.w3.org/2000/svg">
<path d="M4.97202 42.6667V22.1333H0V16H5.1052V7.11111H12.5632V16H17.846V22.1333H12.6964V42.6667H4.97202Z" fill="white"/>
<path d="M21.8414 42.6667V16H28.7667V20.5778C29.6842 19.037 30.8384 17.8519 32.2294 17.0222C33.6499 16.163 35.3073 15.7333 37.2014 15.7333L38.8883 22.5778C38.326 22.4 37.6897 22.3111 36.9794 22.3111C34.7598 22.3111 32.9693 23.037 31.6079 24.4889C30.2465 25.9111 29.5658 27.9556 29.5658 30.6222V42.6667H21.8414Z" fill="white"/>
<path d="M53.3674 43.3778C50.911 43.3778 48.6765 42.7407 46.664 41.4667C44.6516 40.1926 43.0386 38.5037 41.8252 36.4C40.6414 34.2667 40.0495 31.9111 40.0495 29.3333C40.0495 26.7556 40.6414 24.4 41.8252 22.2667C43.0386 20.1333 44.6516 18.4444 46.664 17.2C48.6765 15.9259 50.911 15.2889 53.3674 15.2889C55.0839 15.2889 56.6525 15.6 58.0731 16.2222C59.4936 16.8148 60.7071 17.6444 61.7133 18.7111V16H68.3723V42.6667H61.7133V39.9556C60.7071 41.0222 59.4936 41.8667 58.0731 42.4889C56.6525 43.0815 55.0839 43.3778 53.3674 43.3778ZM54.2997 36.5778C55.6019 36.5778 56.7857 36.2519 57.8511 35.6C58.9165 34.9481 59.76 34.0741 60.3815 32.9778C61.0326 31.8815 61.3582 30.6667 61.3582 29.3333C61.3582 28 61.0326 26.7852 60.3815 25.6889C59.76 24.5926 58.9165 23.7185 57.8511 23.0667C56.7857 22.4148 55.6019 22.0889 54.2997 22.0889C52.9975 22.0889 51.8136 22.4148 50.7482 23.0667C49.6828 23.7185 48.8245 24.5926 48.1734 25.6889C47.5519 26.7852 47.2412 28 47.2412 29.3333C47.2412 30.6667 47.5519 31.8815 48.1734 32.9778C48.8245 34.0741 49.6828 34.9481 50.7482 35.6C51.8136 36.2519 52.9975 36.5778 54.2997 36.5778Z" fill="white"/>
<path d="M86.16 44L71.5547 16H80.1225L84.2955 24.5778C84.6802 25.3185 85.0354 26.0593 85.3609 26.8C85.6865 27.5111 86.012 28.3259 86.3376 29.2444C86.6631 28.3259 86.9887 27.5111 87.3142 26.8C87.6398 26.0593 87.9949 25.3185 88.3797 24.5778L92.5526 16H100.765L86.16 44Z" fill="white"/>
<path d="M116.429 43.5556C113.44 43.5556 110.806 42.9333 108.527 41.6889C106.248 40.4444 104.473 38.7407 103.2 36.5778C101.927 34.3852 101.291 31.8815 101.291 29.0667C101.291 26.3704 101.913 23.9852 103.156 21.9111C104.399 19.8074 106.071 18.1481 108.172 16.9333C110.303 15.7185 112.656 15.1111 115.231 15.1111C117.865 15.1111 120.217 15.7185 122.289 16.9333C124.361 18.1185 125.988 19.7481 127.172 21.8222C128.386 23.8963 128.992 26.2519 128.992 28.8889V31.6H112.745C112.005 31.6 111.294 31.5556 110.614 31.4667C109.933 31.3778 109.252 31.2741 108.572 31.1556C108.927 32.9333 109.8 34.3852 111.191 35.5111C112.611 36.6074 114.417 37.1556 116.607 37.1556C118.294 37.1556 119.803 36.8148 121.135 36.1333C122.496 35.4519 123.606 34.6074 124.464 33.6L126.151 40.5333C124.819 41.5407 123.31 42.2963 121.623 42.8C119.966 43.3037 118.234 43.5556 116.429 43.5556ZM108.394 26.4889C109.874 26.163 111.324 26 112.745 26H117.45C118.279 26 119.063 26.0296 119.803 26.0889C120.543 26.1481 121.238 26.2519 121.889 26.4C121.446 24.8 120.632 23.5407 119.448 22.6222C118.294 21.7037 116.858 21.2444 115.142 21.2444C113.514 21.2444 112.093 21.7185 110.88 22.6667C109.696 23.5852 108.868 24.8593 108.394 26.4889Z" fill="white"/>
<path d="M133.364 42.6667V0H141.088V42.6667H133.364Z" fill="white"/>
<path d="M158.995 43.3778C156.539 43.3778 154.304 42.7407 152.292 41.4667C150.279 40.1926 148.666 38.5037 147.453 36.4C146.269 34.2667 145.677 31.9111 145.677 29.3333C145.677 26.7556 146.269 24.4 147.453 22.2667C148.666 20.1333 150.279 18.4444 152.292 17.2C154.304 15.9259 156.539 15.2889 158.995 15.2889C160.712 15.2889 162.28 15.6 163.701 16.2222C165.121 16.8148 166.335 17.6444 167.341 18.7111V16H174V42.6667H167.341V39.9556C166.335 41.0222 165.121 41.8667 163.701 42.4889C162.28 43.0815 160.712 43.3778 158.995 43.3778ZM159.927 36.5778C161.23 36.5778 162.413 36.2519 163.479 35.6C164.544 34.9481 165.388 34.0741 166.009 32.9778C166.66 31.8815 166.986 30.6667 166.986 29.3333C166.986 28 166.66 26.7852 166.009 25.6889C165.388 24.5926 164.544 23.7185 163.479 23.0667C162.413 22.4148 161.23 22.0889 159.927 22.0889C158.625 22.0889 157.441 22.4148 156.376 23.0667C155.311 23.7185 154.452 24.5926 153.801 25.6889C153.18 26.7852 152.869 28 152.869 29.3333C152.869 30.6667 153.18 31.8815 153.801 32.9778C154.452 34.0741 155.311 34.9481 156.376 35.6C157.441 36.2519 158.625 36.5778 159.927 36.5778Z" fill="white"/>
<path d="M86.3001 12.8C89.8307 12.8 92.6927 9.93462 92.6927 6.4C92.6927 2.86538 89.8307 1.27157e-06 86.3001 1.27157e-06C82.7696 1.27157e-06 79.9075 2.86538 79.9075 6.4C79.9075 9.93462 82.7696 12.8 86.3001 12.8Z" fill="#EAB600"/>
</svg>
